<svg width="200" height="200" viewBox="0 0 200 200" fill="none" xmlns="http://www.w3.org/2000/svg">
<rect width="200" height="200" rx="10" fill="#1F1F1F"/>
<path fill-rule="evenodd" clip-rule="evenodd" d="M72.3268 78.8167C69.9601 78.8167 68.0435 76.8417 68.4101 74.5083C70.7018 60.3333 81.5018 50 100.243 50C118.993 50 131.635 61.3333 131.635 76.7917C131.635 87.9917 126.093 95.8583 116.718 101.567C107.552 107.058 104.935 110.883 104.935 118.317V118.567C104.935 119.672 104.496 120.732 103.715 121.513C102.933 122.294 101.874 122.733 100.768 122.733H94.3518C93.2539 122.733 92.2004 122.3 91.4202 121.528C90.64 120.755 90.1961 119.706 90.1851 118.608L90.1601 116.942C89.8018 106.767 94.1352 100.267 103.868 94.3417C112.452 89.075 115.51 84.8833 115.51 77.4417C115.51 69.2833 109.193 63.2917 99.4601 63.2917C91.0518 63.2917 85.2101 67.7 83.3101 74.975C82.7601 77.0917 80.9935 78.8167 78.8101 78.8167H72.3268ZM97.5018 150C102.685 150 106.627 146.05 106.627 140.917C106.627 135.767 102.685 131.817 97.5018 131.817C92.4518 131.817 88.4435 135.767 88.4435 140.908C88.4435 146.05 92.4518 150 97.5018 150Z" fill="white" fill-opacity="0.5"/>
<rect x="0.5" y="0.5" width="199" height="199" rx="9.5" stroke="white" stroke-opacity="0.1"/>
</svg>
