<svg width="220" height="28" viewBox="0 0 220 28" fill="none" xmlns="http://www.w3.org/2000/svg">
<path d="M4.27887 26.5818C6.10136 27.2701 8.04271 27.5761 10.1029 27.5761C12.282 27.5761 14.1441 27.2701 15.6496 26.62C17.1551 26.0081 18.2645 25.1286 18.9776 24.0578C19.6907 22.987 20.0869 21.8015 20.0869 20.5012C20.0869 18.9333 19.6511 17.6713 18.7795 16.7535C17.9079 15.8356 16.8778 15.109 15.6892 14.6501C14.461 14.1912 12.8366 13.7323 10.816 13.2352C8.99356 12.8145 7.52766 12.3938 6.49756 12.0114C5.42784 11.629 4.55621 11.0936 3.84307 10.367C3.12992 9.6786 2.77335 8.72254 2.77335 7.49878C2.77335 5.93084 3.40726 4.63059 4.75431 3.63629C6.06175 2.64198 8.00308 2.14483 10.5783 2.14483C11.8461 2.14483 13.1536 2.33604 14.5006 2.71847C15.8477 3.10089 17.0759 3.67453 18.1852 4.40114L18.938 2.8332C17.8287 2.10659 16.5608 1.53295 15.0949 1.07404C13.5894 0.653374 12.0839 0.42392 10.5783 0.42392C8.35965 0.42392 6.53717 0.768102 5.07126 1.37998C3.60535 2.0301 2.53564 2.90968 1.82249 3.98047C1.10934 5.05126 0.752771 6.23678 0.752771 7.53702C0.752771 9.1432 1.14896 10.4434 2.02058 11.3995C2.86908 12.3381 3.94407 13.0605 5.15051 13.5028C6.3787 13.9618 8.00308 14.4589 10.0633 14.9178C11.8461 15.3385 13.2724 15.7209 14.3421 16.1033C15.3722 16.4858 16.2835 17.0594 16.9966 17.7478C17.7098 18.4744 18.0664 19.4304 18.0664 20.6159C18.0664 22.1839 17.3928 23.4459 16.0458 24.402C14.6987 25.3963 12.6781 25.8552 10.0633 25.8552C8.24079 25.8552 6.49755 25.5492 4.83354 24.9374C3.16953 24.3255 1.86211 23.4841 0.911245 22.4898L0 23.943C1.0301 25.0138 2.45639 25.8934 4.27887 26.5818Z" fill="white"/>
<path d="M32.4586 0.615143V27.3849H34.4792V0.615143H32.4586Z" fill="white"/>
<path d="M49.6456 0.615143V2.3743H67.395V0.615143H49.6456ZM49.6456 27.3849H51.6662V15.568H67.395V13.8088H49.6456V27.3849Z" fill="white"/>
<path d="M85.6837 2.3743V27.3849H87.7043V2.3743H97.6883V0.615143H75.6996V2.3743H85.6837Z" fill="white"/>
<path d="M122.783 18.0155C124.843 17.4418 126.467 16.4475 127.577 14.9943C128.686 13.5411 129.28 11.7819 129.28 9.64037C129.28 6.84867 128.29 4.6306 126.309 3.02442C124.328 1.41824 121.594 0.615143 118.108 0.615143H108.163V2.3743H118.107C121.039 2.3743 123.297 3.02442 124.882 4.28642C126.427 5.54842 127.219 7.34582 127.219 9.64037C127.219 11.9732 126.427 13.7706 124.882 15.0326C123.297 16.2946 121.039 16.9064 118.107 16.9064H108.163V27.3849H110.183V18.6274H118.107C118.899 18.6274 119.811 18.5891 120.801 18.4361L127.418 27.3849H129.716L122.783 18.0155Z" fill="white"/>
<path d="M152.362 0.615143H150.342L137.584 27.3849H139.763L151.332 2.75672L162.941 27.3849H165.12L152.362 0.615143Z" fill="white"/>
<path d="M179.573 2.3743V27.3849H181.594V2.3743H191.578V0.615143H169.589V2.3743H179.573Z" fill="white"/>
<path d="M220 12.9292H202.052V14.6501H220V12.9292ZM220 0.615143H202.052V2.3743H220V0.615143ZM202.052 25.6257V27.3849H220V25.6257H202.052Z" fill="white"/>
</svg>
