<svg xmlns="http://www.w3.org/2000/svg" fill="none" viewBox="0 0 30 30"><path stroke="#fff" stroke-linecap="round" stroke-linejoin="round" stroke-width="1.5" d="M16.45 23.85H7.775a4.332 4.332 0 0 1-4.338-4.338v-4.337c0-2.4 1.938-4.338 4.338-4.338h8.675c2.4 0 4.338 1.938 4.338 4.338v4.337c-.013 2.4-1.95 4.338-4.338 4.338Z"/><path stroke="#fff" stroke-linecap="round" stroke-linejoin="round" stroke-width="1.5" d="m20.775 20.237 3.825 1.438c.95.35 1.95-.35 1.95-1.35v-5.95c0-1.012-1.012-1.713-1.95-1.35l-3.825 1.438v5.774ZM8.362 9.725a3.213 3.213 0 1 0 0-6.425 3.213 3.213 0 0 0 0 6.425ZM15.863 9.725a3.213 3.213 0 1 0 0-6.425 3.213 3.213 0 0 0 0 6.425Z"/></svg>