<svg xmlns="http://www.w3.org/2000/svg" fill="none" viewBox="0 0 23 22"><path fill="#FFBF00" stroke="#FFBF00" stroke-linecap="round" stroke-linejoin="round" stroke-width="1.5" d="M21.766 9.4c.465-.44.196-1.246-.441-1.319l-5.9-.854a.824.824 0 0 1-.588-.44L12.192 1.44c-.293-.587-1.126-.587-1.395 0L8.152 6.787a.893.893 0 0 1-.587.44l-5.9.854c-.637.098-.882.88-.442 1.319l4.285 4.15a.74.74 0 0 1 .22.684l-1.003 5.86c-.123.636.563 1.124 1.126.806l5.288-2.759a.782.782 0 0 1 .735 0l5.289 2.76c.563.293 1.248-.196 1.126-.806l-1.004-5.86a.784.784 0 0 1 .22-.684l4.26-4.151Z"/></svg>
